<svg xmlns="http://www.w3.org/2000/svg" viewBox="0 0 24 24" fill="none" stroke="currentColor" stroke-width="2" stroke-linecap="round" stroke-linejoin="round">
  <!-- Betrieb → Servereinstellungen: Speicher und Grenzen der Anlage · Quelle: Tabler Icons „server" (MIT) -->
  <g id="i"><path d="M3 7a3 3 0 0 1 3 -3h12a3 3 0 0 1 3 3v2a3 3 0 0 1 -3 3h-12a3 3 0 0 1 -3 -3z" /> <path d="M3 15a3 3 0 0 1 3 -3h12a3 3 0 0 1 3 3v2a3 3 0 0 1 -3 3h-12a3 3 0 0 1 -3 -3z" /> <path d="M7 8l0 .01" /> <path d="M7 16l0 .01" /></g>
</svg>
